<?xml version="1.0" encoding="UTF-8"?>
<svg id="Capa_2" data-name="Capa 2" xmlns="http://www.w3.org/2000/svg" viewBox="0 0 829.37 420.53">
  <g id="Capa_1-2" data-name="Capa 1">
    <g>
      <path d="M822.03,419.78l5.53.75c1.06-.18,1.31-1.3,1.46-2.24.68-4.44.2-13.15.04-18.03C821.21,166.07,616.59-16.46,383,1.18,167.12,17.48-3.39,202.12.05,419.15l1.9,1.22,4.94-.59c-3.34-128.44,59.49-253.14,160.94-330.09,143.85-109.11,343.3-110.83,488.69-3.42,104.15,76.95,168.86,202.78,165.51,333.51Z"/>
      <path d="M799.04,385.33C778.22,103.21,464.67-62.02,219.37,82.29,108.72,147.39,36.54,265.26,29.42,393.34c-.49,8.78-.67,17.6-.54,26.46,3.89,3.77,16.88-13.2,19.39-16.08l8.57-15.89c2.81,9.51-.17,19.65-4.98,27.96l16.49-11.97c7.83,16.87,21.64,14.91,23.97-4.01,1.23-.03,1.66,7.25,2.17,8.83,5.2,16.03,24.24,6.61,33.78.16.89.84-1.19,2.5-1.36,3.74-.46,3.31,4.17,5.92,7.14,5.12,5.1-1.37,5.31-13.81,6.22-13.85,2.71,6.57,7.78,11.45,14,14.76,5.93-4.95,11.06-11.17,12.97-18.76l.08,19.11c11.27,3.87,17.65-3.88,23.38-12.1-.96,7.96,2.96,14.2,11.55,13.04,11.21-1.52,2.24-22.17,1.95-29.03,6.36,8.72,10.2,18.47,12.5,28.98,1.86.39,1.96-.5,2.75-1.73,2.19-3.43,3.14-10.19,4.25-14.24l1.48,11.98c3.35-3.65,6.38-9.01,6.51-13.98l3.49,12.98c3.74,8.81,10.85.94,7.5-5.99,16.08,14.78,27.43,13.03,26.97-10.99l6.23,16.72c5.49,5.3,14.24-7.18,12.74-12.73l1.98,1.01,7.99-60.95-6.99,23.97c-1.17,1.22-10.89-6.71-11.85-8.62-1.68-3.34-.38-5.99-2.06-8.93-3.43-1.03-9.51-.62-12.46-2.52-.66-.43-9.41-10.88-9.98-12-5.71-11.14-.94-31.98-7.09-45.86-4.73-10.69-16.88-10.74-26.37-14.59l-26.11-21.92c-2.43-1.1-11.06,3.1-15.21,2.38-2.79-.48-4.25-3.56-6.36-4.72-3.3-1.8-8.29-1.56-10.87-5.12-3.64-11.51,3.52-14.81,8.52-22.46,12.08-18.46,16.49-42.83,33.46-56.45,11.22-9,20.37-10.65,34.44-7l-2.99,4.49c-.16.74,1.02.67,1.48.48,2.53-1.06,5.35-3.7,8.97-5.02,3.42-1.25,17.01-5,20.06-5.01,6.05,0,2.82,10.78,1.5,14.59-1.11,3.2-3.22,5.36-4.03,8.44,2.91-.83,4.57-5.87,6.7-6.78,3.17-1.34,18.29-2.8,22.76-3.21,4.99-.46,14.47-1.7,18.92-.95,5.25.89,5.49,4.77,8.51,7.47,6.57,5.91,15.23,10.31,23.96,12,25.69,5,64.02,7.64,90.45,8.45,52.56,1.61,104.74-24.14,157.71-16.87,46.47,6.38,38.91,35.19,43.7,72.18,2.8,21.6,6.15,43.47,14.1,63.83,4.94,12.66,14.24,24.5,13.74,38.7l-2.97-1.51c4.01,5.49,4.98,13.16,3.74,19.76-.38,2.03-8.52,17.36-10.75,14.73v-17.48c0-3.78-5.24-15.31-6.5-20.47-2.98-12.19-3.39-24.9-5.78-37.18-2.84-14.63-7.58-28.95-9.7-43.75-1.49-.04-1.46,3.56-1.68,4.8-2.56,14.74-3.92,29.65-10.09,43.5l17.78,27.21c-1.76,26.24-7.69,53.44-.96,79.31,3.5,2.98,13.84-11.1,15.49-13.91,1-1.71,1.04-3.51,1.96-5.05,2.79-.35.85,1.49.79,2.79-.18,3.83-2.63,14.06.7,15.7,4.7,2.31,13.6-1.38,16.98-5,2.2-2.36,2.46-5.76,4.99-7.48-1.23,8.19,5.42,16.08,13.97,12.46,6.9-2.92,1.19-22.71-.97-28.45,7.83,7.74,10.66,18.6,12.99,28.97,2.96,2.26,6.95-13.13,6.99-14.98l1.21,11.26c.72,3.3,2.55,4.16,5.77,3.71l-.98-6.98,4.97,5.99,1.01-8.99c4.17.96,5.03,6.92,9.55,7.97,5.25,1.22,5.58-6.15,5.43-9.97,2.38-.55,1.61.4,2.22,1.3,1.59,2.35,3.73,7.52,7.46,5.97,5.66-2.36,7.65-13.76,8.3-19.25l1.25,10.23,4.24,13.74,2.99-7.97c2.93,6.07,8,9.37,14.84,7.03,1.8-1.04.22-10.84,3.63-12.04-1.68,14.28,12.99,15.36,15.76,2.27.89-4.21-.4-18.56-.78-23.74ZM288.64,115.73l-7.47-5.79-7.5,4.79,1.89-8.33c-.18-1.49-8.82-5.08-6.89-6.65l9.03-.46,3.46-7.53,2.59,7.89,9.89.11-6.86,6.69,1.86,9.29ZM352.57,114.73l-15.63-10.79-15.32,9.79,4.85-17.3-14.85-11.68h18.98c2.17-5.72,3-13.44,6.98-17.98l5.01,17.98h18.98l-14.86,11.59,5.86,18.38ZM431.81,91.22l7.67,24.51-20.65-14.83-21.29,14.83,7.67-24.51-19.67-15.46h24.97l7.5-23.98c2.2-.44,1.26.95,1.74,2.2,2.72,7.07,4.59,14.53,6.74,21.78h24.97l-19.67,15.46ZM515.4,113.73l-15.32-9.79-15.63,10.79,5.86-18.38-14.86-11.59h18.98l5.01-17.98c3.24,1.05,6.01,17.98,6.98,17.98h18.98l-14.85,11.68,4.85,17.3ZM561.46,106.39l1.89,8.33-7.5-4.79-7.47,5.79,1.86-9.29-6.86-6.69,9.89-.11,2.11-7.89c1.36.11,1.6,1.44,2.04,2.44,3.13,7.04,1.7,5.78,10.93,5.56,1.93,1.56-6.71,5.15-6.89,6.65Z"/>
      <path d="M617.23,339.86l3-23.97-2.54,7.93c-.08,3.16-1.21,6.55-1.43,9.56-.1,1.36-.86,6.18.98,6.48Z"/>
      <path d="M499.37,406.31c-.53-4.53.39-9.85,0-14.49l6.81,16.66,5.68,9.31.5-7.99c4.21,1.97,4.04,8.99,9.45,8.04l2.05-1.03c3.16-4.59,1-6.32-1.03-10.01-.84-1.52-.68-2.7.99-1.99,4.65,1.96,6.84,20.45,14.94,10.93l2.54-8.93c.28,15.05,6.41,17.27,14.99,4.99l2,7.99c1.75-7.56,3.66-15.11,3.02-22.97l5.1,16.36c2.97,4.56,6.57.82,7.66-3.1,1.91-6.87,3.4-41.67,1.99-48.51-2.3-11.16-22.41-20.48-25.76-31.69-1.73-.27-.82,1.18-.72,2.19.5,4.65,2.24,5.69-2.33,9.22-7.12,5.51-22.68,11.07-31.57,16.38-11.4,6.81-18.4,13.14-30.55,19.4-4.89,2.52-7.52,7.86-14.24,8.71-2.14-1.66-1.24-4.44-2.23-6.71-.62-1.4-21.01-17.67-23.69-19.27-20.06-11.93-55.17-9.2-76.46-1.46l13.56-1.21,1.25,1.36,8.18,53.3,2.98-2.99-.98,8.99c6.64,1.15,6.81-7,10.97-9.99l1.01,9.99,4.98-3.99.94,5.56,11.06.44-1.51-16.99,8.11,17.03,3.29-.15,2.59-7.9.44,7.38c2.95,3.84,9-8.95,9.55-11.38l2.62,11.87,5.44-.81.44-6.06c11.43,11.2,22.85,10.22,22.48-8l5.18,13.07c4.79,3.21,11.4-6.37,10.79-11.06l11.48,12.98c-.66-4.26-3.49-9.31-3.99-13.49Z"/>
      <path d="M597.26,419.79h13.98c1.32-17.43,3.91-34.92,3-52.46-.06-1.2.75-4.35-1.49-3.49-5.25,18.55-14.45,36.34-15.49,55.96Z"/>
      <path d="M370.5,419.79c2.28-5.87,1.76-8.2-.81-13.66-3.78-8.01-14.89-26.85-20.32-33.62-2.53-3.16-5.07-5.3-8.32-7.65l-27.39,49.44c.47,2.9,2.51,6.07,5.91,5.49l.5-10.98c4.3,3.14,4.71,10.85,11.5,8.53,4.1-5.28,1.96-11.29-3-15.03,7.44-1.87,9.17,14.03,13.69,15.34,5.04.85,6.8-1.16,8.05-5.57.66-2.32-1.08-6.05,2.23-5.26l1.08,11.9c3.01.51,5.88,1,8.63-.69,3.34-2.05,2.58-6,6.27-6.22l1.99,7.98Z"/>
    </g>
  </g>
</svg>