<?xml version="1.0" encoding="UTF-8"?>
<svg id="Capa_2" data-name="Capa 2" xmlns="http://www.w3.org/2000/svg" xmlns:xlink="http://www.w3.org/1999/xlink" viewBox="0 0 910.75 847.39">
  <defs>
    <style>
      .cls-1 {
        fill: url(#Degradado_sin_nombre_45-4);
      }

      .cls-2 {
        fill: url(#Degradado_sin_nombre_45-6);
      }

      .cls-3 {
        fill: url(#Degradado_sin_nombre_45-2);
      }

      .cls-4 {
        fill: url(#Degradado_sin_nombre_45-3);
      }

      .cls-5 {
        fill: url(#Degradado_sin_nombre_45-5);
      }

      .cls-6 {
        fill: #fff;
      }

      .cls-7 {
        fill: url(#Degradado_sin_nombre_45);
      }
    </style>
    <linearGradient id="Degradado_sin_nombre_45" data-name="Degradado sin nombre 45" x1="0" y1="423.03" x2="910.75" y2="423.03" gradientUnits="userSpaceOnUse">
      <stop offset="0" stop-color="#461e18"/>
      <stop offset=".08" stop-color="#6f4a27"/>
      <stop offset=".38" stop-color="#af9253"/>
      <stop offset=".56" stop-color="#eadabc"/>
      <stop offset=".79" stop-color="#a48560"/>
      <stop offset=".8" stop-color="#a1815c"/>
      <stop offset=".96" stop-color="#8a542e"/>
    </linearGradient>
    <linearGradient id="Degradado_sin_nombre_45-2" data-name="Degradado sin nombre 45" x1="422.29" y1="91.26" x2="488.22" y2="91.26" xlink:href="#Degradado_sin_nombre_45"/>
    <linearGradient id="Degradado_sin_nombre_45-3" data-name="Degradado sin nombre 45" x1="512.19" y1="98.3" x2="562.14" y2="98.3" xlink:href="#Degradado_sin_nombre_45"/>
    <linearGradient id="Degradado_sin_nombre_45-4" data-name="Degradado sin nombre 45" x1="348.37" y1="98.3" x2="398.31" y2="98.3" xlink:href="#Degradado_sin_nombre_45"/>
    <linearGradient id="Degradado_sin_nombre_45-5" data-name="Degradado sin nombre 45" x1="305.14" y1="111.29" x2="330.39" y2="111.29" xlink:href="#Degradado_sin_nombre_45"/>
    <linearGradient id="Degradado_sin_nombre_45-6" data-name="Degradado sin nombre 45" x1="580.12" y1="111.29" x2="605.36" y2="111.29" xlink:href="#Degradado_sin_nombre_45"/>
  </defs>
  <g id="Capa_1-2" data-name="Capa 1">
    <circle cx="453.23" cy="424.81" r="422.58"/>
    <rect x="16.04" y="447.72" width="877.24" height="204.24" rx="30.26" ry="30.26"/>
    <g>
      <path class="cls-7" d="M32.87,403.45c4.87-129.02,72.85-251.15,177.76-325.52,140.09-99.31,326.26-104.13,471.3-12.01,122.66,77.9,199.7,217.36,196.04,363.93,17.38,5.35,29.99,19.52,32.79,37.64v160.84c-10.09,55.18-71.73,35.9-111.67,39.68-88.81,127.66-245.37,194.71-400.13,174.49-115.96-15.15-221.55-79.66-289.34-174.19C70.4,663.91,11.63,683.13,0,630.07v-164.34c3.52-17.98,15.98-30.21,32.74-36.4-.24-8.65-.2-17.28.12-25.88M862.82,428l5.53.75c1.06-.18,1.31-1.3,1.46-2.24.68-4.44.2-13.15.04-18.03C862,174.28,657.38-8.24,423.8,9.39,207.91,25.69,37.4,210.34,40.84,427.37l1.9,1.22,4.94-.59c-3.34-128.44,59.49-253.14,160.94-330.09,143.85-109.11,343.3-110.83,488.69-3.42,104.15,76.95,168.86,202.78,165.51,333.51ZM70.21,401.55c-.49,8.78-.67,17.6-.54,26.46,3.89,3.77,16.88-13.2,19.39-16.08l8.57-15.89c2.81,9.51-.17,19.65-4.98,27.96l16.49-11.97c7.83,16.87,21.64,14.91,23.97-4.01,1.23-.03,1.66,7.25,2.17,8.83,5.2,16.03,24.24,6.61,33.78.16.89.84-1.19,2.5-1.36,3.74-.46,3.31,4.17,5.92,7.14,5.12,5.1-1.37,5.31-13.81,6.22-13.85,2.71,6.57,7.78,11.45,14,14.76,5.93-4.95,11.06-11.17,12.97-18.76l.08,19.11c11.27,3.87,17.65-3.88,23.38-12.1-.96,7.96,2.96,14.2,11.55,13.04,11.21-1.52,2.24-22.17,1.95-29.03,6.36,8.72,10.2,18.47,12.5,28.98,1.86.39,1.96-.5,2.75-1.73,2.19-3.43,3.14-10.19,4.25-14.24l1.48,11.98c3.36-3.65,6.38-9.01,6.51-13.98l3.49,12.98c3.74,8.81,10.85.94,7.5-5.99,16.08,14.78,27.43,13.03,26.97-10.99l6.23,16.72c5.49,5.3,14.24-7.18,12.74-12.73l1.98,1.01,7.99-60.95-6.99,23.97c-1.17,1.22-10.89-6.71-11.85-8.62-1.68-3.34-.38-5.99-2.06-8.93-3.43-1.03-9.51-.62-12.46-2.52-.66-.43-9.41-10.88-9.98-12-5.71-11.14-.94-31.98-7.09-45.86-4.73-10.69-16.88-10.74-26.37-14.59l-26.11-21.92c-2.43-1.1-11.06,3.1-15.21,2.38-2.79-.48-4.25-3.56-6.36-4.72-3.3-1.8-8.29-1.56-10.87-5.12-3.64-11.51,3.52-14.81,8.52-22.46,12.08-18.46,16.49-42.83,33.46-56.45,11.21-9,20.37-10.65,34.44-7l-2.99,4.49c-.16.74,1.02.67,1.48.48,2.53-1.06,5.35-3.7,8.97-5.02,3.42-1.25,17.01-5,20.06-5.01,6.05,0,2.82,10.78,1.5,14.59-1.11,3.2-3.22,5.36-4.03,8.44,2.91-.83,4.57-5.87,6.7-6.78,3.17-1.34,18.29-2.8,22.76-3.21,4.99-.46,14.47-1.7,18.92-.95,5.25.89,5.49,4.77,8.51,7.47,6.57,5.91,15.23,10.31,23.96,12,25.69,5,64.02,7.64,90.45,8.45,52.56,1.61,104.74-24.14,157.71-16.87,46.47,6.38,38.91,35.19,43.7,72.18,2.8,21.6,6.15,43.47,14.1,63.83,4.94,12.66,14.24,24.5,13.74,38.7l-2.97-1.51c4.01,5.49,4.98,13.16,3.74,19.76-.38,2.03-8.52,17.36-10.75,14.73v-17.48c0-3.78-5.24-15.31-6.5-20.47-2.98-12.19-3.39-24.9-5.78-37.18-2.84-14.63-7.58-28.95-9.7-43.75-1.49-.04-1.46,3.56-1.68,4.8-2.56,14.74-3.92,29.65-10.09,43.5l17.78,27.21c-1.76,26.24-7.69,53.44-.96,79.31,3.5,2.98,13.84-11.1,15.49-13.91,1-1.71,1.04-3.51,1.96-5.05,2.79-.35.85,1.49.79,2.79-.18,3.83-2.63,14.06.7,15.7,4.7,2.31,13.6-1.38,16.98-5,2.2-2.36,2.46-5.76,4.99-7.48-1.23,8.19,5.42,16.08,13.97,12.46,6.9-2.92,1.18-22.71-.97-28.45,7.83,7.74,10.66,18.6,12.99,28.97,2.95,2.26,6.95-13.13,6.99-14.98l1.21,11.26c.72,3.3,2.55,4.16,5.77,3.71l-.98-6.98,4.98,5.99,1.01-8.99c4.17.96,5.03,6.92,9.55,7.97,5.25,1.22,5.58-6.15,5.43-9.97,2.38-.55,1.61.4,2.22,1.3,1.59,2.35,3.73,7.52,7.46,5.97,5.66-2.36,7.65-13.76,8.3-19.25l1.25,10.23,4.24,13.74,2.99-7.97c2.93,6.07,8,9.37,14.84,7.03,1.8-1.04.22-10.84,3.63-12.04-1.68,14.28,12.99,15.37,15.76,2.27.89-4.21-.4-18.56-.78-23.74C819.01,111.42,505.46-53.8,260.16,90.51c-110.65,65.1-182.83,182.96-189.95,311.04M658.02,348.07l3-23.97-2.54,7.93c-.08,3.16-1.21,6.55-1.43,9.56-.1,1.36-.86,6.18.98,6.48ZM540.16,414.52c-.53-4.53.39-9.85,0-14.49l6.81,16.66,5.68,9.31.5-7.99c4.21,1.97,4.04,8.99,9.45,8.04l2.05-1.03c3.16-4.59,1-6.32-1.03-10.01-.84-1.52-.68-2.7.99-1.99,4.65,1.96,6.84,20.45,14.94,10.93l2.54-8.93c.28,15.05,6.41,17.27,14.99,4.99l2,7.99c1.75-7.56,3.66-15.11,3.02-22.97l5.1,16.36c2.97,4.56,6.57.82,7.66-3.1,1.91-6.87,3.4-41.67,1.99-48.51-2.3-11.16-22.41-20.48-25.76-31.69-1.73-.27-.82,1.18-.72,2.19.5,4.65,2.24,5.69-2.33,9.22-7.12,5.51-22.68,11.07-31.57,16.38-11.4,6.81-18.4,13.14-30.55,19.4-4.89,2.52-7.52,7.86-14.24,8.71-2.14-1.66-1.24-4.44-2.23-6.71-.62-1.4-21.01-17.67-23.69-19.27-20.06-11.93-55.17-9.2-76.46-1.46l13.56-1.21,1.25,1.36,8.18,53.3,2.98-2.99-.98,8.99c6.64,1.15,6.81-7,10.97-9.99l1.01,9.99,4.98-3.99.94,5.56,11.06.44-1.51-16.99,8.11,17.03,3.29-.15,2.59-7.9.44,7.38c2.95,3.84,9-8.95,9.55-11.38l2.62,11.87,5.44-.81.44-6.06c11.43,11.2,22.85,10.22,22.48-8l5.18,13.07c4.79,3.21,11.4-6.37,10.79-11.06l11.48,12.98c-.66-4.26-3.49-9.31-3.99-13.49ZM638.05,428.01h13.98c1.32-17.43,3.91-34.92,3-52.46-.06-1.2.75-4.35-1.49-3.49-5.25,18.55-14.45,36.34-15.49,55.96ZM411.29,428c2.28-5.87,1.76-8.2-.81-13.66-3.78-8.01-14.89-26.85-20.32-33.62-2.53-3.16-5.07-5.3-8.32-7.65l-27.39,49.44c.47,2.9,2.51,6.07,5.91,5.49l.5-10.98c4.3,3.14,4.71,10.85,11.5,8.53,4.1-5.28,1.96-11.29-3-15.03,7.44-1.87,9.17,14.03,13.69,15.34,5.04.85,6.8-1.16,8.05-5.57.66-2.32-1.08-6.05,2.23-5.26l1.08,11.9c3.01.51,5.88,1,8.63-.69,3.34-2.05,2.58-6,6.27-6.22l1.99,7.98ZM753.93,667.79h-90.4c-.28,0-2.72-1.55-3-2-.07-4.92-3.08-19.8,3.02-20.95h203.79c13.99-1.67,20.42-11.05,21.47-24.47-3.22-47.01,4.18-99.53-.05-145.89-1.23-13.51-8.59-22.27-22.42-23.53l-825.7.48c-13.3,2.97-18.08,12.09-18.97,24.99-3.26,46.91,2.52,97.59.06,144.9.9,7.44,3.19,14.92,9.64,19.33,1.04.71,8.22,4.17,8.82,4.17h207.78c3.52,0,3.22,18.65,1.57,21.3-.32.52-2.18,1.68-2.57,1.68h-88.4c91.15,111.68,239.9,162.9,381.6,131.39,83.35-18.53,159.69-65.77,213.76-131.39ZM782.11,668.02c-.88.51-10.19,13.84-12.22,16.24-97.79,115.3-248.15,169.29-397.74,138.09-96.03-20.03-182.94-75.76-241.98-153.63l-9.56-.92c88.5,123.34,242.13,186.97,392.93,165.7,109.44-15.44,210.38-76.36,275.34-165.21-1.34-.77-5.68-.9-6.78-.27Z"/>
      <path class="cls-3" d="M447.26,83.32l7.5-23.98c2.2-.44,1.26.95,1.74,2.2,2.72,7.07,4.59,14.53,6.74,21.78h24.97l-19.67,15.46,7.67,24.51-20.65-14.83-21.29,14.83,7.67-24.51-19.67-15.46h24.97Z"/>
      <path class="cls-4" d="M543.16,92.31h18.98l-14.85,11.68,4.85,17.3-15.32-9.79-15.63,10.79,5.86-18.38-14.86-11.59h18.98l5.01-17.98c3.24,1.05,6.01,17.98,6.98,17.98Z"/>
      <path class="cls-1" d="M379.33,92.31h18.98l-14.86,11.59,5.86,18.38-15.63-10.79-15.32,9.79,4.85-17.3-14.85-11.68h18.98c2.17-5.72,3-13.44,6.98-17.98l5.01,17.98Z"/>
      <path class="cls-5" d="M320.49,107.19l9.89.11-6.86,6.69,1.86,9.29-7.47-5.79-7.5,4.79,1.89-8.33c-.18-1.49-8.82-5.08-6.89-6.65l9.03-.46,3.46-7.53,2.59,7.89Z"/>
      <path class="cls-2" d="M605.08,107.3c1.93,1.56-6.71,5.15-6.89,6.65l1.89,8.33-7.5-4.79-7.47,5.79,1.86-9.29-6.86-6.69,9.89-.11,2.11-7.89c1.36.11,1.6,1.44,2.04,2.44,3.13,7.04,1.7,5.78,10.93,5.56Z"/>
      <g>
        <path class="cls-6" d="M258.46,470.97l17.97,84.92-2.99-84.92h20.98c-3.76,49.18-3.76,98.64,0,147.87h-20.48l-17.98-84.93c-1.41,28.32-.36,56.69,1.5,84.93h-20.98c3.77-49.19,3.77-98.64,0-147.87h21.98Z"/>
        <path class="cls-6" d="M590.6,469.97c16.37,1.56,23.72,10.55,26.98,25.97,3.94,18.62,1.45,40.77-14.49,52.95,2.42.14,3.5,2.01,4.82,3.69,13.24,16.81,8.73,46.48,15.16,66.27h-21.98c-.09-15.43.1-32.01-3.31-47.14-1.05-4.66-4.21-17.83-10.16-17.81-1.83,21.68.57,43.32,1.49,64.95h-20.98c-.23-8.66,1.73-17.89,2.04-26.44,1.09-29.91,1.04-64.08,0-94-.32-9.27-2.33-19.06-2.05-28.43,7.26.5,15.32-.68,22.48,0ZM587.11,490.95v41.96c21.42,1.91,22.53-44.25,0-41.96Z"/>
        <path class="cls-6" d="M230.49,618.84h-21.98c-.14-15.63.33-32.89-3.27-48.18-1.08-4.6-4.36-16.78-10.2-16.77-1.35,21.6-.24,43.65,2.49,64.95h-21.98c3.96-49.49,3.85-99.28,0-148.87h23.47c4.6,0,14.1,4.14,17.52,7.46,15.07,14.6,13.62,58.17-5.01,70.97,18.17,17.79,12.11,47.67,18.96,70.44ZM194.53,532.91c21.51,1.84,22.73-44.31,0-41.96v41.96Z"/>
        <path class="cls-6" d="M709.48,469.97c11.46,1.11,20.96,6.11,26.65,16.3,12.37,22.15,12.45,97.26-1.34,118.91-3.09,4.84-13.65,13.65-19.32,13.65h-25.47c3.75-49.54,3.56-99.28,0-148.87,6.29.44,13.28-.6,19.48,0ZM708.98,597.86c9.1.7,14.32-7.19,16.5-14.97,4.05-14.49,4.14-61.59,0-75.97-2.46-8.53-7.27-14.92-16.5-15.97v106.9Z"/>
        <path class="cls-6" d="M439.27,618.84l3.04-40.42v-66.03s-3.04-42.41-3.04-42.41h19.48c12.18,0,23.05,8.19,28.18,18.77,10.62,21.92,10.61,92.7-1.17,114.14-3.33,6.05-13.9,15.95-21.01,15.95h-25.47ZM458.25,597.86c8.3.84,13.87-6,16.26-13.21,5.32-16.05,5.7-67.89-1.4-83.08-3.08-6.58-7.69-9.64-14.86-10.62v106.9Z"/>
        <path class="cls-6" d="M529.96,470.18c16.4-1.29,25.05,19.17,28.31,32.13,6.24,24.83,8.82,100.57-17.58,114.55-16.27,8.62-28.02-6.12-33.25-19.75-10.2-26.58-11.75-97.95,8.73-119.68,3.17-3.36,9.13-6.9,13.8-7.26ZM530.8,492.2c-7.23,2.93-9.59,10.51-11.33,17.53-4.42,17.85-5.88,69.05,5.7,83.63,1.36,1.71,4.05,4.35,6.32,4.25,3.13-.51,4.75-1.96,6.5-4.41,11.17-15.62,10.15-71.33,3.65-89.24-1.51-4.17-5.43-12.34-10.84-11.75Z"/>
        <path class="cls-6" d="M799.88,618.84h-21.98v-37.97h-11.99c-.56,12.48-2.38,25.66,0,37.97h-21.98l16.98-148.87h20.48l18.48,148.87ZM770.92,507.94l-3.75,51.49c.36,2.08,7.2,2.09,8.3.52l-2.57-44.52-1.98-7.5Z"/>
        <path class="cls-6" d="M684,618.84h-21.98c2.13-12.64.27-25.35-.58-37.98h-11.42c-.27,12.62-2.42,25.47,0,37.98h-21.98l16.98-148.87h20.48l18.48,148.87ZM660.04,560.89l-2.97-48.5-2.02-3.46-3.01,51.96h8Z"/>
        <path class="cls-6" d="M152.58,469.97l16.98,148.87h-21.98c2.64-12.47,0-25.37,0-37.97h-11.42c-1.18,12.59-2.62,25.33-.58,37.97h-21.98l18.48-148.87h20.48ZM145.59,560.89l-3.99-52.95-4.01,52.95h8Z"/>
        <path class="cls-6" d="M343.37,469.97l2.99,31.97c-7.83-5.26-18.16-14.89-27.96-9.49v40.46c7.54.88,14.02-3.14,20.98-5v34.97c-3.58-2.48-8.66-4.58-12.95-5.53-2.28-.5-6.62-1.91-8.03.03v40.46c11.75,1.82,19.3-3.2,27.96-9.99l-2.99,30.97h-43.95c5.19-38.03,2.17-76.99,3.04-115.44-.36-9.95-2.64-21.67-2.63-31.39,0-1.17.07-1.29,1.09-2.04h42.45Z"/>
        <path class="cls-6" d="M393.3,504.93c-1.91-.92-2.12-4.05-3.55-5.92-14.27-18.73-25.08,4.42-19.21,20.21,3.78,10.16,16.13,17.97,22.75,26.21,27.53,34.31,2.68,103.24-42.8,61.72l6.35-28.29,1.5-.98c2.91,11.05,20.98,31.75,28.48,12.98,9.57-23.95-16.61-35.2-26.88-52.03-17.89-29.34-2.53-86.25,39.06-62.42l-5.69,28.53Z"/>
        <path class="cls-6" d="M844.84,504.94c-8.23-23.04-25.94-12.38-22.9,9.41,1.89,13.55,17.43,21.78,24.86,32.08,25.84,35.78,1.89,100.94-43.82,60.77l6.9-29.31,8.95,13.5c7.91,10.84,20.01,8.72,21.91-5.11,3.56-25.85-21.34-31.95-30.76-51.99-7.55-16.07-6.25-48.08,9.37-59.32,8.63-6.21,24.46-5.62,32.24,1.6-2.5,7.86-2.46,18.21-4.87,25.77-.36,1.11-.32,2.42-1.89,2.59Z"/>
        <path class="cls-6" d="M98.65,512.93c-3.21-26.32-18.44-27.41-25.11-1.62-5.25,20.32-5.31,47.58.41,67.78,2.24,7.91,8.97,24.84,19.34,15.42,4.99-4.54,4.42-11.15,8.34-15.63-.1,6.09,9.35,16.78,9.77,21.64.5,5.68-12.6,17.34-18.31,18.26-38.03,6.12-40.72-60.84-39.44-85.4,1.03-19.75,7.62-62.54,33.66-63.33,8.48-.26,22.34,9.64,23.85,17.83.23,1.23-8.93,20.19-10.32,22.75-.5.93-.95,2.2-2.18,2.3Z"/>
      </g>
      <g>
        <path class="cls-6" d="M527.17,644.31c1.18-3.92,25.36-4.64,26.96,4.04.46,2.49-.03,6.23-2.01,7.92-1.58,1.36-5.79.97-4.96,3.01l7.96,11.02c-7.09,11.63-10.6-14.61-20.95-11.51-.18,3.34,1.59,16.07-4.35,14.79-.7-.15-2.65-2.03-2.65-2.3v-26.98ZM547.02,653.68c4.16-6.69-8.99-7.89-12.86-6.87v8c2.35-.11,11.83.51,12.86-1.13Z"/>
        <path class="cls-6" d="M273.45,671.79v-27.48c4.25-4.11,16.83-2.93,21.71-.73,7.6,3.42,9.01,15.85,5.11,22.56-5.17,8.9-18.13,7.21-26.82,5.64ZM280.44,667.79c5.39-.29,10.72,1.74,13.5-3.98,5.25-10.79-2.13-19.03-13.5-17v20.98Z"/>
        <path class="cls-6" d="M396.05,642.05c14.66-2.7,25.93,6.96,20.73,21.74-3.71,10.55-18.85,12.78-26.97,6.01-9.15-7.63-6.1-25.48,6.24-27.75ZM398.02,647.03c-8.42,1.92-8.73,17.61-.46,21,15.64,6.41,19.74-25.39.46-21Z"/>
        <path class="cls-6" d="M333.38,646.81h-17.98v7.99h16.98v4h-16.98v8.99h17.48c1.88,0,1.88,5,0,5h-21.98c-.18,0-2.5-2.32-2.5-2.5v-25.98c4.16-3.48,16.15-3.29,21.41-2.43,3.57.58,5.04,1.64,3.56,4.93Z"/>
        <path class="cls-6" d="M439.98,647.11c-2.19-1.77-7.92-2.11-9.8.12l-.81,2.9c1.3,5.12,18.62,2.58,19.86,12.26,1.72,13.44-23.35,14.66-26.52,4.46-.51-1.65-1.06-4.22,1.18-4.96,4.52-1.49,4.5,3.8,6.85,5.93,3.74,3.39,11.13,2.02,11.56-3.47-.55-5.97-16.69-4.11-18.82-11.24-4.29-14.37,23.82-14.4,23.86-4.79.04,9.09-6.37-.39-7.37-1.2Z"/>
        <path class="cls-6" d="M633.32,672.51c-1.29-1.25-1.92-4.78-2.38-6.6l-14.71.04-4.17,7.39-3.86-.69c-.55-1.67-.05-3.26.37-4.87.84-3.27,8.43-21.11,10.17-23.71,1.9-2.82,5.85-3.16,8.36-.81,3.82,3.56,8.99,21.55,11.96,26.98l-1.47,2.65c-1.22,1.22-3.23.63-4.28-.39ZM628.06,660.79l-4.49-11.98c-1.45,1.41-5.31,11.19-4.5,11.98h8.98Z"/>
        <path class="cls-6" d="M510.07,672.66l-3.86.69-4.17-7.39-14.17-.21c-1.75,9.42-11.16,11.42-7.12.06,1.17-3.27,9.66-22.62,11.45-23.51,3.14-1.56,5.71-.1,7.41,2.6,2.36,3.74,8.31,17.04,9.63,21.34.64,2.09,1.42,4.18.83,6.42ZM499.2,660.8l-.47-3.01-4.5-8.97-4,11.98h8.98Z"/>
        <path class="cls-6" d="M380.25,652.71c-3.13,4.23-7.13-4.23-9.14-5.16-18.36-8.54-17.8,29.19-.39,20.11,3.09-1.61,5.64-10.81,9.19-5.92,4.36,6-9.07,12.39-14.91,11.98-23.39-1.64-17.46-39.46,8.08-31.14,3.03.99,9.47,7.03,7.18,10.13Z"/>
        <path class="cls-6" d="M599.25,660.96c1.05-.64,3.46.03,4.84-.16,1.99,11.23-11.63,14.91-20.22,11.73-16.77-6.2-11.22-35.17,11.5-30.48,3.93.81,11.18,6.5,8.25,10.8-4.57,3.6-5.64-4.75-9.22-5.82-18.03-5.37-16.99,26.34-1.24,21.32,4.46-1.42,5.49-7.02,6.1-7.39Z"/>
        <path class="cls-6" d="M463.24,648.31l-1.65-1.34-8.36-.63c-1.1-.52-1.35-2.92-.97-3.5.83-1.27,20.45-1.38,23.49-1.03,3.69.42,7.06,1.78,3.81,5.06l-9.33-.05c-.85.85.77,19.74-.43,24.07-.93,3.37-3.97,2.71-6.56,1.91v-24.48Z"/>
        <path class="cls-6" d="M561.14,643.32l5.32-1.55c.64.22,1.67,2.28,1.67,2.55v26.98l-3.67,2.34c-1.04.29-3.32-2.02-3.32-2.34v-27.98Z"/>
      </g>
    </g>
  </g>
</svg>